<svg width="50" height="50" viewBox="0 0 50 50" fill="none" xmlns="http://www.w3.org/2000/svg">
<path d="M21.125 0H49.25V9.70833H45.375C48.4583 14.0417 50 18.8958 50 24.2708C50 31.1771 47.5625 37.0729 42.6875 41.9583C37.8125 46.8333 31.9167 49.2708 25 49.2708C18.0833 49.2708 12.1875 46.8333 7.3125 41.9583C2.4375 37.0729 0 31.1771 0 24.2708C0 18.0938 1.98958 12.6667 5.95833 8L13.3542 15.4583C11.4115 18.099 10.4375 21.0365 10.4375 24.2708C10.4375 28.3438 11.8646 31.7448 14.7083 34.4792C17.5833 37.3698 21.0156 38.8125 25 38.8125C28.974 38.8125 32.4062 37.3698 35.2917 34.4792C38.125 31.6458 39.5417 28.2448 39.5417 24.2708C39.5417 20.3438 38.125 16.9063 35.2917 13.9583C35.1979 13.8646 35.099 13.7656 35 13.6667L34.625 13.2917C34.224 12.9479 33.849 12.6198 33.5 12.3125C32.4583 11.4792 31.5625 10.9115 30.8125 10.6042V21.7917H21.125V0ZM30.8125 9.79167L30.8958 9.70833H30.8125V9.79167Z" fill="white"/>
</svg>
