<svg width="50" height="41" viewBox="0 0 50 41" fill="none" xmlns="http://www.w3.org/2000/svg">
<path d="M22.0833 6.65108C22.5313 5.66671 23.4271 4.67192 24.7708 3.67192C27.4115 1.68754 30.9167 0.692749 35.2917 0.692749C40.6146 0.692749 44.5417 3.00525 47.0833 7.63025C48.3333 9.96358 49.0573 12.3073 49.25 14.6511V40.9844H0.75V18.5261C0.75 16.6823 1.14583 14.7136 1.9375 12.6302C3.53646 8.50525 6.30208 5.86983 10.2292 4.71358C13.0625 3.86983 15.8958 3.94275 18.7292 4.94275C20.1198 5.44275 21.2396 6.01567 22.0833 6.65108ZM9.77083 29.3386H20.6042V18.9636C20.6042 17.4792 20.0781 16.1875 19.0208 15.0886C17.9792 14.0469 16.7188 13.5261 15.2292 13.5261C13.6875 13.5261 12.3906 14.0469 11.3333 15.0886C10.2917 16.1875 9.77083 17.4792 9.77083 18.9636V29.3386ZM34.9167 9.79692C33.4323 9.79692 32.1406 10.3177 31.0417 11.3594C30 12.4011 29.4792 13.6719 29.4792 15.1719V29.3386H40.2917V15.1719C40.2917 13.6719 39.7708 12.4011 38.7292 11.3594C37.6875 10.3177 36.4167 9.79692 34.9167 9.79692Z" fill="white"/>
</svg>
