<svg width="665" height="583" viewBox="0 0 665 583" fill="none" xmlns="http://www.w3.org/2000/svg" fill-opacity="0.8">
<mask id="mask0_2_313" style="mask-type:luminance" maskUnits="userSpaceOnUse" x="0" y="0" width="665" height="583">
<path d="M664.137 0H0.218262V582.92H664.137V0Z" fill="white"/>
</mask>
<g mask="url(#mask0_2_313)">
<mask id="mask1_2_313" style="mask-type:luminance" maskUnits="userSpaceOnUse" x="509" y="417" width="155" height="74">
<path d="M509.49 417.515H663.533V490.88H509.49V417.515Z" fill="white"/>
</mask>
<g mask="url(#mask1_2_313)">
<path d="M663.085 490.348C656.534 490.687 651.753 487.034 647.098 483.184C638.026 475.649 628.142 469.443 617.32 464.696C602.275 458.105 587.527 450.821 572.263 444.787C557.452 438.925 542.173 434.235 527.071 429.129C522.431 427.55 517.639 426.393 513.015 424.783C511.885 424.398 510.156 422.418 510.338 422.089C511.145 420.667 512.442 418.703 513.755 418.546C515.937 418.286 518.598 418.703 520.452 419.833C528.013 424.455 536.778 425.294 544.897 428.123C552.781 430.864 561.285 432.005 567.795 437.945C568.368 438.472 569.232 439.138 569.883 439.076C577.132 438.289 582.84 442.557 589.073 444.943C594.005 446.829 598.749 449.226 603.577 451.394C609.602 454.098 615.586 456.886 621.663 459.481C623.179 460.132 624.96 460.148 626.163 460.366C627.402 461.68 628.392 463.118 629.72 464.123C638.083 470.376 646.514 476.545 654.94 482.72C656.669 483.986 658.601 484.992 660.273 486.326C661.372 487.206 662.174 488.441 663.101 489.525V490.348H663.085Z" fill="white"/>
</g>
<path d="M6.42064 1.55797C7.56633 7.06557 8.69119 12.5575 9.83689 18.0651L8.2902 18.3882C7.39448 12.7712 6.49875 7.16978 5.60303 1.55797H6.42064Z" fill="white"/>
<mask id="mask2_2_313" style="mask-type:luminance" maskUnits="userSpaceOnUse" x="9" y="26" width="628" height="557">
<path d="M9.55029 26.6782H636.141V582.576H9.55029V26.6782Z" fill="white"/>
</mask>
<g mask="url(#mask2_2_313)">
<path d="M258.619 339.491C260.832 340.716 262.316 341.565 263.832 342.341C268.873 344.894 274.018 347.244 278.919 350.042C281.397 351.455 283.512 353.57 285.553 355.597C287.194 357.238 287.47 357.395 289.251 355.597C289.495 355.352 289.761 355.024 290.084 354.951C295.526 353.481 295.651 353.247 293.365 349.084C294.411 347.448 295.359 345.978 296.302 344.488C296.515 344.149 296.765 343.472 296.885 343.498C299.718 344.04 302.702 344.29 305.285 345.452C306.368 345.947 306.676 348.344 307.139 349.938C307.493 351.189 307.556 352.533 307.712 353.617C306.644 355.039 305.499 356.54 303.89 358.661C309.847 359.125 314.435 359.297 318.966 359.885C322.2 360.302 322.616 362.157 320.065 364.945C326.975 366.894 333.641 368.639 340.198 370.713C341.463 371.114 342.499 372.584 343.364 373.761C344.848 375.804 345.577 378.524 349.243 376.455C350.587 375.694 352.904 376.622 354.779 376.778C354.899 377.242 355.024 377.69 355.149 378.154C353.123 379.842 351.113 381.525 348.9 383.385C351.342 385.256 353.399 386.324 356.571 383.833C358.997 381.931 362.138 381.494 365.169 384.062C366.746 385.396 369.355 385.396 371.381 386.277C373.376 387.158 376.006 387.965 376.886 389.586C377.756 391.196 376.782 393.796 376.61 395.948C375.792 395.776 374.954 395.557 374.121 395.437C373.115 395.281 371.709 394.739 371.168 395.187C369.298 396.75 367.736 398.668 365.616 400.914C367.304 401.732 369.22 403.295 371.23 403.42C372.574 403.493 374.027 401.497 375.698 400.247C378.849 403.884 382.547 408.26 389.723 406.989C388.114 405.353 386.504 403.712 384.354 401.513C386.364 401.252 387.817 401.065 389.259 400.867L389.291 399.658C386.567 399.517 383.859 399.397 380.63 399.225C380.859 397.709 381.187 395.557 381.604 392.853C386.348 392.9 390.619 394.817 394.993 397.152C401.857 400.835 408.554 405.118 416.688 405.785C419.964 406.046 423.255 406.619 426.427 407.5C427.369 407.765 428.452 409.511 428.468 410.579C428.468 411.804 427.635 413.706 426.645 414.107C423.552 415.425 420.214 416.181 416.792 417.931C419.131 418.145 421.511 418.129 423.781 418.64C425.192 418.953 427.234 419.755 427.604 420.839C429.489 426.221 430.109 426.466 435.316 422.449C434.655 421.657 434.004 420.886 433.353 420.109C433.801 420.464 434.238 420.823 434.686 421.178C435.827 419.354 436.957 417.494 438.165 415.701C438.425 415.3 439.337 414.821 439.399 414.883C443.003 418.702 446.497 410.115 450.148 414.789C450.689 415.482 452.017 415.889 452.944 415.826C453.673 415.779 454.319 414.789 455.48 413.846C449.356 411.043 443.758 408.401 438.071 405.926C431.806 403.201 425.453 400.71 419.224 397.943C417.6 397.214 416.313 395.776 414.845 394.708C414.334 394.338 413.777 393.994 413.194 393.812C407.195 391.816 401.18 389.898 395.212 387.809C394.467 387.543 394.004 386.491 393.415 385.798C394.269 385.271 395.071 384.406 395.982 384.266C400.143 383.583 404.346 383.104 408.538 382.546C409.205 382.458 410.116 382.671 410.533 382.301C415.912 377.627 419.995 383.041 424.573 384.172C425.083 384.297 425.734 386.631 425.343 387.048C423.49 389.075 423.583 390.638 425.375 392.665C426.151 393.546 426.073 395.203 426.427 396.703C429.057 394.01 431.655 394.291 434.655 396.443C436.462 397.74 439.029 397.928 441.055 398.975C443.279 400.137 445.273 401.732 447.362 403.154C447.903 403.524 448.335 404.332 448.861 404.363C454.663 404.702 459.298 407.781 464.339 410.209C469.89 412.887 476.124 414.154 482.029 416.134C484.331 416.91 486.544 417.947 488.768 418.921C491.664 420.203 494.523 421.61 497.876 418.223C493.903 416.983 490.393 415.951 486.914 414.789C485.508 414.326 484.055 413.768 482.878 412.919C482.029 412.299 481.581 411.105 480.946 410.162C482.139 409.438 483.326 408.073 484.503 408.089C487.628 408.12 491.075 408.214 491.554 412.174C493.856 412.283 495.913 412.017 497.767 412.528C503.209 414.06 503.12 414.154 500.584 419.307C500.225 420.031 500.35 421.548 500.86 422.027C502.626 423.653 504.495 425.31 506.63 426.315C508.375 427.149 510.911 426.513 512.489 427.503C519.816 432.161 527.982 434.449 536.132 437.112C542.517 439.201 549.104 441.952 554.328 446.037C561.874 451.936 570.951 454.067 579.085 458.371C582.918 460.398 586.626 462.67 590.464 464.696C591.563 465.285 592.938 465.332 594.156 465.702C598.192 466.937 603.343 466.275 604.874 471.908C604.967 472.231 605.384 472.507 605.691 472.742C609.79 475.821 613.763 479.083 618.06 481.855C620.507 483.429 623.476 484.221 626.21 485.351C628.855 486.445 633.511 486.774 632.521 490.239C631.501 493.782 627.23 491.661 624.616 490.874C621.122 489.806 617.924 487.795 614.508 486.445C613.409 486.013 612.003 486.372 610.748 486.372C611.243 487.378 611.477 488.707 612.263 489.343C615.805 492.219 619.393 495.033 623.147 497.601C627.308 500.446 628.949 504.578 628.793 509.19C628.699 511.79 629.35 513.244 631.251 514.682C634.188 516.896 636.167 519.231 634.823 523.623C633.927 526.562 632.797 527.693 630.105 527.041C626.147 526.082 622.267 524.801 618.341 523.701C616.299 523.128 614.227 522.664 612.404 522.201C614.18 529.24 616.253 535.785 617.383 542.496C617.909 545.653 616.716 549.134 616.112 552.443C616.008 553.032 614.784 554.006 614.461 553.871C611.581 552.677 611.211 555.522 609.79 556.606C608.399 557.659 606.962 558.649 605.629 559.779C604.842 560.425 603.759 561.186 603.587 562.051C601.968 570.451 584.433 578.433 577.075 579.58C569.56 580.757 562.03 581.93 554.421 582.258C537.257 582.982 520.249 579.366 503.475 575.76C488.721 572.587 473.973 569.429 459.22 566.261C449.174 564.094 439.092 561.942 429.228 559.05C406.018 552.276 384.093 541.787 361.273 533.851C327.053 521.935 293.901 502.338 262.858 483.819C243.345 472.168 224.54 459.33 206.605 445.36C197.392 438.195 188.409 430.723 179.67 422.986C175.681 419.458 163.157 404.577 158.131 404.608C161.813 404.592 165.495 405.911 168.323 408.276C166.729 403.076 162.881 398.621 157.965 396.302C155.132 394.968 152.012 394.338 149.148 393.051C143.69 390.607 139.394 385.735 137.629 380.024C137.306 378.972 137.071 377.799 137.509 376.794C139.795 371.562 150.341 381.327 152.658 376.111C149.429 383.448 157.73 383.151 159.99 385.673C161.704 387.59 167.781 385.86 165.401 391.55C165.276 391.847 167.562 393.874 168.724 393.874C173.145 393.874 176.317 395.99 179.53 398.668C182.394 401.065 185.701 402.94 188.81 405.04C189.039 404.702 189.258 404.347 189.487 404.003C184.868 399.798 180.228 395.588 175.603 391.383C180.493 389.508 183.519 393.004 187.185 394.181C187.482 393.858 187.773 393.53 188.065 393.191C184.946 389.742 181.884 386.246 178.681 382.874C177.478 381.603 175.853 380.754 174.598 379.529C169.807 374.829 165.229 369.879 160.298 365.33C154.965 360.427 149.351 355.816 143.768 351.189C141.555 349.35 139.826 347.599 140.566 344.306C140.816 343.191 140.055 341.382 139.144 340.575C136.811 338.501 133.535 337.282 131.723 334.901C127.349 329.127 120.839 324.766 117.933 318.425C115.923 314.011 113.569 309.869 111.142 305.752C110.064 303.929 108.096 302.501 106.304 301.251C104.466 299.984 103.148 298.963 104.049 296.332C105.346 292.507 104.034 290.605 100.242 289.678C98.977 289.37 97.4616 288.782 96.7325 287.807C94.4619 284.759 92.5611 281.45 90.4103 278.308C89.5302 277.006 88.3221 275.911 87.3951 274.624C86.3588 273.171 85.4787 271.592 85.2912 269.534C86.2025 270.216 87.0983 270.899 87.6867 271.331C87.7336 268.7 87.9992 266.022 87.6867 263.411C87.593 262.572 86.0515 261.864 85.0933 261.197C84.1611 260.545 82.5884 260.269 82.2447 259.451C81.0573 256.523 80.8386 253.495 77.3286 251.51C75.9694 250.755 76.2454 245.836 76.912 243.095C77.6515 239.974 77.5317 239.041 74.329 238.828C73.4176 238.765 72.0584 238.223 71.7303 237.515C70.1524 234.076 68.7932 230.548 67.4965 226.994C67.2465 226.343 67.2934 225.119 67.71 224.749C70.6055 222.211 69.1057 219.72 68.111 216.954C65.8092 210.544 63.8459 204.021 61.5753 197.596C61.2472 196.669 59.9974 196.08 59.1433 195.356C58.6642 194.939 57.8935 194.642 57.6904 194.115C55.6646 188.795 53.5815 183.491 51.863 178.056C51.4307 176.681 52.4358 174.92 52.4827 173.325C52.5452 171.455 53.8888 168.604 49.4674 169.475C50.7798 166.656 50.4569 165.155 48.0457 163.363C46.6969 162.357 42.6453 159.105 47.551 156.37C47.9207 156.151 47.6291 154.004 47.1031 153.056C44.7024 148.757 42.26 144.302 40.3123 139.957C38.4271 135.746 34.1308 131.463 36.6044 125.554C37.2033 124.111 34.7453 121.574 34.1308 119.427C31.6102 110.699 29.272 101.93 26.8452 93.1863C24.3403 84.1824 21.6791 75.2253 19.3617 66.1902C18.4191 62.5428 18.3566 58.6869 17.5859 54.9926C16.8568 51.4963 15.6799 48.0938 14.7685 44.6235C13.3312 39.1628 11.9564 33.6865 10.5503 28.2102C10.9982 27.9809 11.446 27.7308 11.8939 27.5015C12.7271 28.627 13.9978 29.6326 14.3363 30.8884C15.4976 35.1559 16.2683 39.5536 17.3047 43.8524C19.4711 52.8719 21.6062 61.8914 23.9549 70.8484C24.9912 74.7772 26.5536 78.5705 28.1159 83.1142C29.2251 81.6604 29.8604 80.8424 30.7874 79.6179C33.2142 86.5063 35.0733 93.0664 37.8543 99.2045C40.4216 104.915 40.4841 111.814 45.7856 116.254C46.2334 116.624 46.6657 117.66 46.4522 118.067C43.666 123.647 48.6186 125.304 51.3682 128.134C52.3733 129.155 53.0243 130.536 54.2898 131.583C53.5971 119.922 46.4053 110.037 44.9836 98.6157C49.8372 99.0065 52.5295 102.253 51.7536 107.854C51.3526 110.793 52.3108 112.403 54.3522 114.148C55.4979 115.123 56.0395 116.811 56.779 118.218C58.5601 121.605 60.3203 124.997 61.9919 128.446C62.2836 129.066 62.1169 129.916 62.1586 130.671C63.4136 130.254 64.7104 129.838 66.5851 129.218C66.5851 129.468 66.4601 128.957 66.6112 128.566C66.9705 127.67 67.4809 126.821 67.9131 125.956C68.6109 126.852 70.0014 127.889 69.8451 128.597C69.2411 131.354 68.8088 133.766 72.1157 135.111C72.35 135.204 72.3344 136.366 72.1157 136.893C72.0115 137.153 71.1731 137.247 70.6784 137.216C68.5953 137.059 66.507 136.815 64.6322 136.627C63.273 140.587 72.7198 139.18 67.6944 145.152C69.4285 144.907 71.1731 144.38 72.876 144.505C74.1727 144.594 76.0319 145.136 76.5891 146.095C79.2763 150.769 81.4427 155.734 84.1924 160.361C84.8589 161.476 87.0253 161.737 88.5564 162.232C88.8324 162.326 89.7281 161.549 89.6813 161.398C89.3428 160.424 88.9886 159.387 88.3533 158.61C86.1088 155.844 86.0671 155.812 89.4365 152.426C91.0301 156.495 92.2643 160.346 94.0766 163.904C94.8942 165.53 96.8575 166.562 98.7114 167.63C98.8052 164.384 92.6653 162.586 97.2585 158.61C94.4932 157.188 91.9883 155.875 93.7953 152.394C93.9985 152.009 93.5506 150.862 93.0871 150.581C88.0929 147.538 88.8949 141.858 86.9316 137.45C85.7547 134.803 84.0726 132.36 82.3853 129.978C81.8906 129.264 80.6042 129.108 79.2919 128.525C80.4064 127.503 81.6718 126.326 83.0935 125.028C85.2756 125.909 85.6922 130.223 89.249 128.243C90.3635 130.551 91.5977 132.808 92.5768 135.158C93.7172 137.945 93.1288 142.166 98.2323 141.561C98.3417 141.561 98.7583 144.38 99.0395 145.881C98.6802 145.975 98.3104 146.079 97.9563 146.173C99.9977 148.512 102.024 150.847 104.065 153.181L105.33 152.41C103.476 148.153 101.451 143.948 99.8415 139.597C98.2479 135.33 97.0762 130.921 95.7118 126.529C95.9461 126.529 94.8473 126.914 94.3838 126.529C93.0559 125.429 91.7852 124.142 90.9051 122.673C90.4885 121.964 90.6395 120.307 91.1967 119.734C94.5244 116.394 95.217 112.882 92.9465 109.063C90.7645 105.41 88.5564 101.789 85.6297 96.9796C87.8429 97.9696 89.9 98.2145 90.5041 99.267C94.0141 105.488 99.0968 110.949 98.8052 119.01C98.6958 121.933 101.138 124.903 102.175 127.92C104.648 135.079 106.924 142.307 109.46 149.44C110.049 151.092 111.392 152.504 112.428 153.989C113.585 155.64 115.798 156.802 114.532 159.481C114.251 160.08 114.637 161.101 114.949 161.846C116.543 165.806 117.996 169.845 119.865 173.664C125.541 185.252 131.338 196.778 137.196 208.273C138.529 210.888 140.29 213.27 141.852 215.76C142.362 215.557 142.873 215.375 143.383 215.171C142.284 211.722 141.185 208.273 140.087 204.823C139.363 202.52 138.514 200.243 138.045 197.893C137.879 197.054 138.404 195.616 139.081 195.184C139.811 194.72 141.357 194.751 142.039 195.246C142.701 195.741 143.242 197.383 142.904 198.044C141.092 201.53 142.795 203.583 145.237 205.766C146.101 206.538 146.242 208.21 146.565 209.513C147.153 211.894 147.169 214.864 151.778 212.54C151.314 214.536 150.835 215.76 150.804 217C150.788 218.063 150.96 219.798 151.622 220.122C154.377 221.528 154.637 223.884 155.272 226.499C155.736 228.448 157.517 230.1 158.813 231.804C161.022 234.727 163.313 237.587 165.568 240.469C165.276 240.745 164.985 241.021 164.688 241.303L161.688 240.141L161.068 241.193C162.849 242.23 164.594 243.314 166.391 244.304C168.26 245.325 170.489 245.93 171.973 247.336C172.65 247.988 172.14 250.181 171.755 251.557C171.4 252.797 169.651 254.59 169.901 254.871C171.119 256.184 172.713 257.747 174.353 257.982C179.113 258.628 179.129 258.383 176.702 262.729C176.426 263.239 176.27 264.198 176.546 264.568C179.545 268.486 182.639 272.321 185.716 276.188C187.029 277.845 188.378 279.486 189.784 281.247C191.19 279.746 192.643 278.402 193.866 276.87C195.72 274.515 197.746 275.463 199.074 276.98C201.657 279.903 203.808 283.196 206.125 286.338C205.943 286.645 205.756 286.958 205.568 287.265C203.792 286.494 202.011 285.733 200.251 284.978C199.85 291.564 200.496 292.372 205.474 291.382C205.386 294.211 205.386 296.592 209.422 297.025C211.245 297.228 212.776 299.969 214.489 301.485C217.801 304.393 221.233 307.191 224.477 310.161C226.008 311.552 227.248 313.256 228.56 314.772C230.492 314.866 232.705 314.96 235.148 315.079C235.367 314.308 235.752 312.933 236.09 311.755C240.481 316.445 244.61 320.868 249.157 325.74C250.396 318.967 250.875 318.81 257.911 322.416C258.187 319.462 259.468 318.472 261.942 320.603C263.488 321.937 265.066 323.234 267.029 324.891C267.373 323.854 267.389 322.942 267.852 322.583C268.639 321.968 269.659 321.515 270.649 321.332C271.003 321.27 271.977 322.213 271.914 322.567C271.732 323.526 271.378 324.954 270.696 325.23C268.206 326.22 265.576 326.824 263.181 327.517C265.019 328.2 266.29 332.285 270.154 329.283C270.586 328.945 272.425 330.414 273.867 331.185C268.467 334.124 263.738 336.709 258.76 339.418L258.619 339.491Z" fill="white"/>
</g>
<path d="M27.819 153.119C28.5794 159.262 33.9902 163.701 33.3079 170.386C33.2455 171.053 33.3704 171.778 33.5892 172.413C35.2088 177.113 37.0523 181.74 38.4896 186.492C39.9582 191.333 40.6508 196.424 42.3693 201.139C45.2284 209.033 45.8949 217.85 51.6442 224.561C52.8212 225.942 54.722 226.682 56.2843 227.719C52.8212 233.383 53.519 234.852 60.6744 237.077C62.8564 237.759 64.726 238.796 63.6897 242.001C62.5335 240.5 61.5441 239.213 60.539 237.916C60.0286 238.192 59.5339 238.458 59.0236 238.734C60.6015 242.089 62.143 245.466 63.7834 248.806C65.0384 251.343 66.4914 253.787 67.6631 256.372C68.7463 258.769 68.9182 261.494 72.5532 262.124C74.8862 262.525 75.1778 266.829 73.8655 269.211C73.402 270.06 74.204 271.592 74.3446 272.321C75.7819 272.493 76.8651 272.384 77.7296 272.769C79.2294 273.468 80.6199 274.426 81.9843 275.385C82.4946 275.739 83.2185 276.62 83.0831 276.901C81.349 280.491 84.6246 282.284 85.8484 284.759C87.4732 288.021 89.3271 291.1 85.7078 294.367C85.338 294.69 86.6035 297.551 86.6816 297.535C92.9777 295.93 94.1182 301.511 96.8262 304.778C97.8157 305.987 98.3885 307.529 99.5342 309.634C96.5919 308.566 94.3994 307.779 91.4935 306.727C92.4674 309.525 92.8215 310.749 95.9461 311.151C100.227 311.724 102.982 315.361 103.612 320.587C102.346 319.613 101.373 318.873 99.6384 317.539C101.373 322.01 98.8989 323.51 95.993 324.302C93.3475 325.026 89.0824 321.843 88.4002 318.175C87.3951 312.854 84.3017 309.587 79.8491 307.019C76.8651 305.304 77.6984 303.027 79.5419 300.865C82.2447 297.676 81.625 295.852 77.5942 294.769C76.8339 294.565 75.9538 293.997 75.5997 293.346C73.803 290.095 72.876 286.244 69.0432 284.509C68.8401 284.42 68.5641 284.123 68.5797 283.941C69.0744 276.031 62.7002 271.206 59.9818 264.756C59.5652 263.75 58.9142 262.682 58.9767 261.676C59.3464 255.783 55.6229 251.526 53.4097 246.607C50.7485 240.683 45.7387 235.858 45.4002 228.74C45.3065 226.682 43.0515 224.733 41.984 223.034C43.2182 222.055 44.968 221.299 44.9524 220.585C44.8899 218.965 44.1191 217.292 43.3432 215.776C42.6922 214.51 41.6403 213.457 40.7602 212.311C39.9582 211.258 39.4009 209.742 38.3334 209.216C35.1619 207.653 36.0316 206.168 37.9324 204.266C39.7863 202.411 41.1924 200.676 37.146 199.394C34.714 198.617 33.3079 196.33 35.0421 193.839C36.9117 191.13 35.1619 190.604 34.313 189.676C33.9277 187.326 33.6777 184.945 33.1413 182.621C32.4122 179.468 31.4852 176.342 30.6624 173.216C30.4958 172.58 30.6364 171.699 30.2458 171.33C26.1526 167.307 27.2931 161.627 25.6578 156.849C25.3141 155.859 26.1057 154.484 26.3661 153.275C26.8296 153.228 27.3087 153.181 27.7722 153.134L27.819 153.119Z" fill="white"/>
<path d="M367.705 370.03C374.475 368.05 386.182 373.016 386.921 377.846C390.322 376.903 394.42 378.633 395.873 381.713C393.696 382.301 391.53 382.937 389.332 383.463C388.562 383.646 387.51 383.896 386.937 383.536C381.094 379.951 374.167 378.868 368.293 375.262C362.367 371.625 355.951 368.842 349.858 365.482C339.255 359.604 328.663 353.711 318.242 347.521C312.982 344.399 308.097 340.622 303.088 337.079C302.608 336.74 302.379 336.057 302.036 335.531C302.286 335.177 302.546 334.807 302.796 334.452C305.53 336.167 308.498 337.62 310.925 339.694C314.576 342.805 318.273 345.046 323.299 344.009C324.116 343.842 325.278 344.102 325.955 344.597C331.818 348.87 337.677 352.971 345.036 354.472C346.843 354.841 348.191 357.129 349.936 358.244C351.884 359.495 354.003 360.5 356.092 361.506C358.378 362.621 362.06 362.439 360.268 366.982C363.388 366.998 366.991 365.096 367.705 370.062V370.03Z" fill="white"/>
<path d="M112.178 337.808C113.152 338.72 114.329 339.481 115.058 340.544C116.569 342.805 117.563 345.587 121.224 343.253C121.813 342.868 123.484 344.165 124.656 344.691C124.193 345.65 123.854 346.703 123.219 347.552C121.985 349.178 120.589 350.694 118.891 352.689C117.902 351.559 116.803 350.089 115.491 348.839C114.439 347.818 113.152 347.026 111.345 345.666C111.439 350.897 113.434 353.372 117.037 354.904C118.365 355.462 119.943 356.493 120.438 357.718C121.719 360.907 123.25 362.918 127.099 361.912C127.427 361.834 128.661 363.642 128.77 364.663C129.109 367.821 128.015 371.875 133.733 370.635C134.056 370.572 134.848 372.693 135.42 373.808C134.462 374.287 133.223 375.387 132.587 375.105C131.03 374.412 129.557 373.266 128.354 371.995C123.063 366.477 117.761 360.969 112.704 355.227C110.325 352.502 108.158 349.459 106.643 346.208C106.242 345.343 108.252 342.649 109.736 341.768C111.47 340.731 112.689 339.991 112.178 337.824V337.808Z" fill="white"/>
<path d="M382.625 365.362C386.921 363.366 389.535 366.352 392.087 369.103C392.722 369.785 392.504 371.255 392.676 372.354C391.655 372.448 390.509 372.865 389.645 372.537C387.744 371.844 385.9 370.885 384.187 369.817C376.454 365.049 368.694 360.318 361.101 355.305C358.919 353.867 357.206 351.637 355.565 349.548C355.086 348.948 355.597 347.567 355.659 346.546C356.727 346.843 357.992 346.859 358.841 347.463C362.325 349.938 364.83 353.388 369.652 354.487C373.871 355.462 377.646 358.661 381.385 361.214C382.255 361.803 382.192 363.767 382.625 365.346V365.362Z" fill="white"/>
<path d="M266.535 336.057C270.94 335.515 274.929 334.775 278.023 338.178C278.398 338.595 280.267 337.761 281.397 337.376C285.058 336.089 288.339 337 292.558 338.923C289.808 340.111 285.183 339.679 289.266 344.118C287.964 343.983 286.928 344.149 286.251 343.732C283.283 341.862 280.45 340.856 277.591 343.92C277.315 344.212 276.356 344.306 276.06 344.056C272.846 341.445 269.706 338.736 266.535 336.042V336.057Z" fill="white"/>
<path d="M308.129 312.62C313.925 316.689 319.632 320.524 325.106 324.672C326.298 325.568 326.637 327.58 327.376 329.065C325.507 329.033 323.158 329.7 321.861 328.82C317.372 325.772 313.154 322.275 309.024 318.748C307.014 317.013 306.504 314.725 308.129 312.62Z" fill="white"/>
<mask id="mask3_2_313" style="mask-type:luminance" maskUnits="userSpaceOnUse" x="1" y="52" width="12" height="51">
<path d="M1.11914 52.0226H12.2167V102.711H1.11914V52.0226Z" fill="white"/>
</mask>
<g mask="url(#mask3_2_313)">
<path d="M12.1751 101.601C11.1231 100.736 9.32647 100.012 9.12857 98.9752C6.97779 87.7568 5.07698 76.4967 3.11368 65.2471C2.41585 61.2089 1.73364 57.1706 1.05664 53.1168C1.52013 53.0282 1.96799 52.9501 2.43147 52.8563C3.45218 57.2332 4.55101 61.5996 5.46235 66.0078C7.73291 77.1741 9.93056 88.3613 12.1282 99.5484C12.248 100.21 12.1699 100.908 12.1699 101.591L12.1751 101.601Z" fill="white"/>
</g>
<path d="M334.443 338.657C335.896 337.558 336.641 336.74 337.568 336.339C338.588 335.906 340.026 335.333 340.833 335.734C344.218 337.422 347.447 339.402 350.665 341.398C351.358 341.831 351.748 342.774 352.274 343.488C351.405 344.024 350.368 345.202 349.723 345.014C344.541 343.488 338.911 342.899 334.443 338.673V338.657Z" fill="white"/>
<path d="M112.178 337.808C110.991 337.761 109.226 337.188 108.715 337.761C104.757 342.138 103.06 337.574 101.169 335.719C98.2635 332.858 99.581 329.919 102.268 326.965C105.669 330.675 108.918 334.249 112.178 337.824V337.808Z" fill="white"/>
<path d="M12.1594 101.617C13.8259 105.843 15.56 110.037 17.1692 114.274C18.2628 117.197 19.2679 120.182 20.1376 123.184C20.4136 124.158 20.1064 125.304 20.0751 126.373C18.9607 125.924 17.2265 125.768 16.8411 124.966C15.8673 122.907 15.3101 120.599 14.9091 118.343C13.904 112.789 13.0708 107.187 12.175 101.617H12.1594Z" fill="white"/>
<path d="M139.175 188.488C137.957 189.525 136.905 190.76 135.556 191.427C134.801 191.797 133.577 191.208 132.556 191.041C132.931 189.911 133.577 188.795 133.608 187.649C133.624 186.643 133.192 185.424 132.546 184.648C131.567 183.475 130.223 182.59 129.036 181.6C129.932 180.86 131.306 179.328 131.645 179.531C133.176 180.412 134.551 181.678 135.681 183.059C136.92 184.57 137.816 186.352 139.16 188.488H139.175Z" fill="white"/>
<path d="M132.483 362.47C136.269 364.434 139.842 366.055 143.164 368.113C144.263 368.795 144.836 370.51 145.362 371.859C145.487 372.167 144.31 373.48 143.94 373.407C141.899 372.959 139.253 372.802 138.061 371.458C135.79 368.889 134.337 365.56 132.499 362.47H132.483Z" fill="white"/>
<path d="M296.515 301.933C292.714 300.537 289.959 299.531 286.839 298.39C287.438 293.33 282.986 291.517 279.153 289.042C282.106 288.13 292.344 295.633 296.515 301.949V301.933Z" fill="white"/>
<path d="M133.176 174.393C131.03 173.773 129.744 173.403 127.687 172.815C126.87 169.891 125.755 166.114 124.812 162.294C124.625 161.554 125.167 160.637 125.385 159.804C126.021 160.361 126.838 160.825 127.239 161.523C128.416 163.534 129.499 165.619 130.473 167.739C131.463 169.891 132.265 172.116 133.192 174.393H133.176Z" fill="white"/>
<path d="M85.0932 83.7812C86.0514 86.35 86.8846 88.5957 87.7178 90.8363C87.5043 90.977 87.2856 91.0968 87.0721 91.2375C86.2493 90.5289 85.4317 89.7994 84.1297 88.6531V94.4733C79.3855 88.7625 79.8334 85.4069 85.0932 83.7812Z" fill="white"/>
<path d="M470.755 405.134C469.614 405.072 468.916 405.244 468.578 404.967C467.156 403.837 465.807 402.597 464.526 401.315C464.339 401.127 464.729 399.97 464.818 399.97C466.489 400.059 468.161 400.168 469.796 400.476C470.4 400.585 471.036 401.08 471.452 401.575C472.088 402.336 472.536 403.248 473.062 404.097C472.135 404.514 471.208 404.936 470.77 405.15L470.755 405.134Z" fill="white"/>
<path d="M449.559 402.352C451.429 399.705 452.606 397.865 453.996 396.208C454.475 395.635 455.512 395.541 456.298 395.234C456.298 395.963 456.251 396.703 456.267 397.433C456.282 398.527 456.548 399.658 456.329 400.71C456.147 401.56 455.465 402.909 454.923 402.956C453.392 403.092 451.814 402.675 449.559 402.383V402.352Z" fill="white"/>
<path d="M72.522 120.959C79.2295 122.736 79.3232 122.954 77.0214 131.599C75.4279 127.826 74.1416 124.794 72.522 120.959Z" fill="white"/>
<path d="M190.726 239.182C188.497 239.802 187.169 240.266 185.81 240.516C184.649 240.729 183.446 240.683 182.253 240.745C182.441 239.786 182.3 238.52 182.873 237.931C183.722 237.046 185.222 235.967 186.149 236.181C187.633 236.535 188.888 237.9 190.726 239.166V239.182Z" fill="white"/>
<path d="M218.478 280.32C214.583 283.352 210.609 281.185 208.323 274.161C211.521 276.094 215.031 278.23 218.478 280.32Z" fill="white"/>
<path d="M80.8542 145.386C84.3486 141.457 85.2912 141.608 86.8066 145.881C87.2389 147.116 87.6399 148.372 88.3846 150.597C85.4162 148.544 83.2654 147.059 80.8542 145.386Z" fill="white"/>
<path d="M40.5622 80.2692C41.2079 82.515 41.9839 84.7399 42.4005 87.0326C42.4942 87.5432 41.3485 88.2831 40.7757 88.9188C40.2653 88.3613 39.4009 87.8663 39.2915 87.2306C38.9061 85.0525 38.7811 82.8224 38.552 80.6079C39.229 80.5037 39.8956 80.3943 40.5778 80.2848L40.5622 80.2692Z" fill="white"/>
<path d="M31.532 54.7112C31.8393 56.2275 32.2403 57.7438 32.4277 59.2914C32.5527 60.3126 32.334 61.3808 32.2715 62.4177C31.5008 61.7351 30.4332 61.2089 30.001 60.3595C29.35 59.0621 28.8865 57.5614 28.8084 56.1181C28.6678 52.9657 30.3238 53.0438 32.1934 53.8775C31.9799 54.1537 31.7455 54.4351 31.532 54.7112Z" fill="white"/>
<path d="M431.254 386.6C433.124 387.496 434.775 388.273 436.415 389.059C435.15 389.758 433.769 391.133 432.645 390.967C431.207 390.748 429.952 389.263 428.624 388.335C429.395 387.825 430.187 387.314 431.254 386.6Z" fill="white"/>
<path d="M277.002 285.488C274.466 283.941 271.888 282.44 269.415 280.799C269.055 280.549 268.857 279.455 269.102 279.064C269.383 278.631 270.524 278.183 270.789 278.386C273.232 280.241 275.58 282.237 277.945 284.201C277.637 284.634 277.315 285.051 277.002 285.488Z" fill="white"/>
</g>
</svg>
