<svg width="49" height="42" viewBox="0 0 49 42" fill="none" xmlns="http://www.w3.org/2000/svg">
<path d="M32.2292 41.3734C29.0886 41.3734 26.1772 40.5817 23.5001 38.9984C20.3178 37.0505 18.1042 34.3161 16.8542 30.79L0.291748 41.2275V28.165L15.7292 18.0192V12.4984H0.291748V0.852539H48.7917V24.0609C48.7917 29.5869 46.9792 33.9671 43.3542 37.2067C40.172 39.9827 36.4636 41.3734 32.2292 41.3734ZM38.3542 12.4984H26.1876V23.9984C26.1876 25.5921 26.4063 26.863 26.8542 27.8109C27.297 28.6025 27.7188 29.1702 28.1251 29.5192C28.7188 30.0192 29.4167 30.3942 30.2084 30.6442C30.9167 30.8369 31.5886 30.9359 32.2292 30.9359C32.922 30.9359 33.6147 30.8369 34.3126 30.6442C35.1147 30.3369 35.8178 29.915 36.4167 29.3734C37.7084 28.2744 38.3542 26.5036 38.3542 24.0609V12.4984Z" fill="white"/>
</svg>
