<svg width="50" height="41" viewBox="0 0 50 41" fill="none" xmlns="http://www.w3.org/2000/svg">
<path d="M17.3125 0.0604248C20.4531 0.0604248 23.3646 0.852091 26.0417 2.43542C29.224 4.38334 31.4375 7.11772 32.6875 10.6438L49.25 0.206258V13.2688L33.8125 23.4146V28.9354H49.25V40.5813H0.75V17.3729C0.75 11.8469 2.5625 7.46668 6.1875 4.22709C9.36979 1.45105 13.0781 0.0604248 17.3125 0.0604248ZM11.1875 28.9354H23.3542V17.4354C23.3542 15.8417 23.1354 14.5708 22.6875 13.6229C22.2448 12.8313 21.8229 12.2636 21.4167 11.9146C20.8229 11.4146 20.125 11.0396 19.3333 10.7896C18.625 10.5969 17.9531 10.4979 17.3125 10.4979C16.6198 10.4979 15.9271 10.5969 15.2292 10.7896C14.4271 11.0969 13.724 11.5188 13.125 12.0604C11.8333 13.1594 11.1875 14.9302 11.1875 17.3729V28.9354Z" fill="white"/>
</svg>
