<svg width="49" height="44" viewBox="0 0 49 44" fill="none" xmlns="http://www.w3.org/2000/svg">
<path d="M0.041748 25.1843C0.041748 18.5177 2.40633 12.7989 7.12508 8.01766C11.8647 3.29891 17.5834 0.934326 24.2917 0.934326C30.9584 0.934326 36.6824 3.29891 41.4584 8.01766C46.1824 12.7989 48.5417 18.5177 48.5417 25.1843V43.6218H0.041748V25.1843ZM33.5417 15.9343C31.0157 13.3927 27.9324 12.1218 24.2917 12.1218C20.7084 12.1218 17.599 13.3927 14.9584 15.9343C12.4324 18.4656 11.1667 21.5697 11.1667 25.2468V31.976H37.3542V25.1843C37.3542 21.5489 36.0834 18.4656 33.5417 15.9343Z" fill="white"/>
</svg>
