<svg width="118" height="141" viewBox="0 0 118 141" fill="none" xmlns="http://www.w3.org/2000/svg">
<path d="M117.042 47.8333C117.042 56.8906 114.74 65.3021 110.146 73.0625C104.531 82.2604 96.6302 88.6458 86.4375 92.2292L116.604 140.083H78.8958L49.5833 95.4792H33.625V140.083H0V0H67.0417C82.9844 0 95.625 5.24479 104.958 15.7292C113.01 24.9271 117.042 35.625 117.042 47.8333ZM33.625 30.1667V65.2917H66.8125C71.4062 65.2917 75.0729 64.6458 77.8125 63.3542C80.1042 62.0625 81.7552 60.8438 82.7708 59.6875C84.1979 57.9688 85.276 55.9583 86 53.6667C86.5677 51.6563 86.8542 49.7083 86.8542 47.8333C86.8542 45.8333 86.5677 43.8281 86 41.8125C85.1354 39.5104 83.9167 37.4948 82.3333 35.7708C79.1771 32.0365 74.0833 30.1667 67.0417 30.1667H33.625Z" fill="white"/>
</svg>
