<svg width="49" height="44" viewBox="0 0 49 44" fill="none" xmlns="http://www.w3.org/2000/svg">
<path d="M48.5 19.2112C48.5 25.8778 46.1354 31.5966 41.4167 36.3778C36.6771 41.0966 30.9583 43.4612 24.25 43.4612C17.5833 43.4612 11.8594 41.0966 7.08333 36.3778C2.35937 31.5966 0 25.8778 0 19.2112V0.773682H48.5V19.2112ZM15 28.4612C17.526 31.0028 20.6094 32.2737 24.25 32.2737C27.8333 32.2737 30.9427 31.0028 33.5833 28.4612C36.1094 25.9299 37.375 22.8258 37.375 19.1487V12.4195H11.1875V19.2112C11.1875 22.8466 12.4583 25.9299 15 28.4612Z" fill="white"/>
</svg>
