<svg width="50" height="42" viewBox="0 0 50 42" fill="none" xmlns="http://www.w3.org/2000/svg">
<path d="M32.7939 41.1257C29.6533 41.1257 26.7419 40.334 24.0648 38.7507C20.8825 36.8028 18.6689 34.0684 17.4189 30.5424L0.856445 40.9799V27.9174L16.2939 17.7715V12.2507H0.856445V0.604858H49.3564V23.8132C49.3564 29.3392 47.5439 33.7194 43.9189 36.959C40.7367 39.7351 37.0283 41.1257 32.7939 41.1257ZM38.9189 12.2507H26.7523V23.7507C26.7523 25.3444 26.971 26.6153 27.4189 27.5632C27.8617 28.3549 28.2835 28.9226 28.6898 29.2715C29.2835 29.7715 29.9814 30.1465 30.7731 30.3965C31.4814 30.5892 32.1533 30.6882 32.7939 30.6882C33.4867 30.6882 34.1794 30.5892 34.8773 30.3965C35.6794 30.0892 36.3825 29.6674 36.9814 29.1257C38.2731 28.0267 38.9189 26.2559 38.9189 23.8132V12.2507Z" fill="white"/>
</svg>
