<svg width="52" height="41" viewBox="0 0 52 41" fill="none" xmlns="http://www.w3.org/2000/svg">
<path d="M0.208496 20.1156C0.208496 16.8239 0.677245 13.9333 1.62516 11.4489C2.42725 9.45931 3.75016 7.41764 5.5835 5.32389C7.7762 2.94889 10.4897 1.43327 13.7293 0.782227C14.771 0.532227 15.8127 0.407227 16.8543 0.407227C17.1981 0.349935 17.547 0.349935 17.896 0.407227H18.4168L18.271 10.6364H18.3543C16.5054 10.6364 14.9845 11.0322 13.7918 11.8239C11.5522 13.3239 10.4377 16.0843 10.4377 20.1156C10.4377 26.5739 11.9585 29.8031 15.0002 29.8031C17.9272 29.8031 19.771 26.4697 20.521 19.8031C20.9637 15.9801 21.7554 12.7041 22.896 9.96973C23.9481 7.42806 25.3439 5.35514 27.0835 3.76139C29.5679 1.52181 32.4481 0.407227 35.7293 0.407227C37.771 0.407227 39.6877 0.782227 41.4793 1.53223C42.8231 2.07389 44.047 2.81348 45.146 3.76139C49.0731 7.24577 51.0418 12.7666 51.0418 20.3239C51.0418 24.8499 50.146 28.6833 48.3543 31.8239C47.0054 34.2093 45.2137 36.1468 42.9793 37.6364C41.2814 38.7301 39.3439 39.5114 37.1668 39.9697C36.4168 40.1051 35.6668 40.2041 34.9168 40.2614C34.6668 40.3031 34.4168 40.3239 34.1668 40.3239H33.7293V30.1156H33.646C35.146 30.1572 36.4168 29.7822 37.4585 28.9906C39.6929 27.3916 40.8127 24.501 40.8127 20.3239C40.8127 17.7926 40.4845 15.7093 39.8335 14.0739C39.0418 12.0322 37.9012 11.0114 36.4168 11.0114C33.3335 11.0114 31.4168 14.3135 30.6668 20.9281C29.8179 28.3864 27.5054 33.7614 23.7293 37.0531C21.1304 39.2301 18.2189 40.3239 15.0002 40.3239H14.3127C14.021 40.3239 13.7189 40.3031 13.4168 40.2614C12.6252 40.2041 11.8804 40.1051 11.1877 39.9697C9.19808 39.4697 7.43766 38.5166 5.896 37.1156C4.04704 35.4749 2.62516 33.2666 1.62516 30.4906C0.677245 27.6989 0.208496 24.2406 0.208496 20.1156Z" fill="white"/>
</svg>
