<svg width="51" height="50" viewBox="0 0 51 50" fill="none" xmlns="http://www.w3.org/2000/svg">
<path d="M28.9814 49.4412H0.856445V39.7328H4.73145C1.64811 35.3995 0.106445 30.5453 0.106445 25.1703C0.106445 18.2641 2.54395 12.3683 7.41895 7.48285C12.2939 2.60785 18.1898 0.170349 25.1064 0.170349C32.0231 0.170349 37.9189 2.60785 42.7939 7.48285C47.6689 12.3683 50.1064 18.2641 50.1064 25.1703C50.1064 31.3474 48.1169 36.7745 44.1481 41.4412L36.7523 33.9828C38.695 31.3422 39.6689 28.4047 39.6689 25.1703C39.6689 21.0974 38.2419 17.6964 35.3981 14.962C32.5231 12.0714 29.0908 10.6287 25.1064 10.6287C21.1325 10.6287 17.7002 12.0714 14.8148 14.962C11.9814 17.7953 10.5648 21.1964 10.5648 25.1703C10.5648 29.0974 11.9814 32.5349 14.8148 35.4828C14.9085 35.5766 15.0075 35.6756 15.1064 35.7745L15.4814 36.1495C15.8825 36.4933 16.2575 36.8214 16.6064 37.1287C17.6481 37.962 18.5439 38.5297 19.2939 38.837V27.6495H28.9814V49.4412ZM19.2939 39.6495L19.2106 39.7328H19.2939V39.6495Z" fill="white"/>
</svg>
